<?xml version="1.0" encoding="utf-8"?>
<!-- Generator: Adobe Illustrator 22.1.0, SVG Export Plug-In . SVG Version: 6.00 Build 0)  -->
<svg version="1.1" id="Layer_1" xmlns="http://www.w3.org/2000/svg" xmlns:xlink="http://www.w3.org/1999/xlink" x="0px" y="0px"
	 viewBox="0 0 720.7 325.8" style="enable-background:new 0 0 720.7 325.8;" xml:space="preserve">
<style type="text/css">
	.st0{fill:#FFFFFF;}
</style>
<g>
	<g>
		<path class="st0" d="M40.8,150.5c-0.8,0.7-1.6,1.1-2.7,1.4c-1,0.2-2,0.5-3,0.7c-4.1,1-7.8,1.4-11.2,1.2c-3.4-0.2-6.4-0.9-9-2.2
			c-2.6-1.2-5-2.9-7-5c-2-2.1-3.8-4.6-5.3-7.4c-1.3-2.5-2.1-5.1-2.5-8c-0.4-2.9-0.2-5.7,0.4-8.4c0.6-2.7,1.8-5.1,3.4-7.3
			c1.7-2.2,3.8-3.8,6.5-4.8c1.9-0.7,3.9-0.9,6.1-0.4c2.1,0.5,4.1,1.4,5.9,2.8c1.8,1.4,3.3,3.1,4.5,5.3c1.2,2.1,1.9,4.5,2.1,7.1
			c0,0.4-0.1,0.8-0.5,1.2c-0.3,0.4-0.7,0.7-1.1,0.8c-0.4,0.2-0.8,0.2-1.2,0.1c-0.4-0.1-0.6-0.4-0.7-1c-0.3-2.3-0.8-4.2-1.6-5.9
			c-0.8-1.6-1.8-2.9-2.8-3.9c-1-0.9-2.1-1.5-3.3-1.8c-1.2-0.2-2.2,0-3.1,0.6c-1.7,1.1-3,2.6-3.9,4.3c-0.9,1.8-1.5,3.7-1.7,5.8
			c-0.2,2.1-0.1,4.3,0.4,6.6c0.5,2.3,1.3,4.5,2.4,6.6c1.5,2.8,3.3,5.1,5.5,6.7c2.2,1.7,4.5,2.8,6.9,3.3c2.4,0.6,5,0.6,7.7,0
			c2.7-0.5,5.2-1.6,7.7-3.1l-1.3-7c-0.8-3.7-1.6-7.5-2.4-11.4s-1.3-7.8-1.6-11.5c-0.3-3.7-0.3-7.1,0-10.2c0.3-3.1,1.2-5.6,2.6-7.7
			c0.9-1.2,2-2.4,3.5-3.5c1.4-1.1,3-2,4.6-2.6c1.1-0.4,2.3-0.7,3.4-0.8c1.2-0.1,2.4,0,3.5,0.3c1.2,0.3,2.2,0.9,3.2,1.7
			c1,0.8,1.9,1.9,2.6,3.3c0.9,1.8,1.6,3.9,2.1,6.4s0.8,5.2,0.8,8.1c0,2.9-0.1,5.9-0.5,8.9c-0.3,3.1-0.9,6.1-1.7,9
			c-0.8,2.9-1.7,5.6-2.9,8.1c-1.2,2.5-2.5,4.6-4,6.3c0,0.6,0.1,1.9,0.4,3.7c0.3,1.8,0.7,4,1.1,6.5c0.5,2.5,1,5.2,1.5,8.1
			c0.6,2.9,1.1,5.8,1.6,8.7c0.5,2.8,0.9,5.5,1.3,8c0.3,2.5,0.5,4.6,0.5,6.3c4.5-0.9,9.3-1.7,14.2-2.4c5-0.7,9.7-1,14.1-0.8
			c4.5,0.1,8.4,0.8,11.9,2c3.5,1.2,5.9,3.2,7.4,5.9c0.8,1.6,1.1,3.2,0.9,4.9c-0.2,1.7-0.6,3.1-1.2,4.2c-0.6,1.1-1.1,1.6-1.7,1.6
			c-0.6,0-0.8-1-0.6-3c0.1-2.2-0.3-3.9-1.3-5.2c-1-1.3-2.4-2.3-4.1-2.9c-1.8-0.7-3.8-1-6.2-1.1c-2.4-0.1-4.8,0-7.4,0.2
			c-2.6,0.2-5.1,0.6-7.8,1.1c-2.6,0.5-5.1,1-7.3,1.5c-2.3,0.5-4.3,1-6,1.4c-1.7,0.4-3,0.7-3.9,0.8c-0.6,2.2-1.3,4.4-2.2,6.6
			c-0.9,2.2-2,4.2-3.3,6.1c-1.4,1.9-3,3.7-5,5.2c-1.9,1.6-4.2,2.9-6.9,3.9c-2.3,0.9-4.6,1.4-6.8,1.6c-2.3,0.1-4.4-0.1-6.3-0.8
			c-1.9-0.7-3.7-1.8-5.1-3.3c-1.5-1.5-2.6-3.4-3.2-5.8c-0.6-2.1-0.3-4.1,0.7-5.9c1.1-1.8,2.8-3.6,5.2-5.2c2.4-1.6,5.5-3.2,9.2-4.6
			c3.7-1.5,7.9-2.9,12.5-4.3c-0.2-2.6-0.6-5.5-1.2-8.8c-0.6-3.3-1.3-6.6-2.1-9.9c-0.8-3.3-1.5-6.5-2.3-9.5
			C41.8,155.1,41.2,152.6,40.8,150.5z M26.4,204.2c-0.2,1.4-0.1,2.7,0.5,4c0.6,1.3,1.5,2.3,2.7,3.2c1.2,0.8,2.7,1.2,4.5,1.3
			c1.7,0,3.7-0.6,5.9-1.8c1.8-1,3.2-2.1,4.2-3.4c1-1.2,1.7-2.6,2.2-4s0.8-3,1-4.6c0.2-1.6,0.3-3.4,0.4-5.2c-2.2,0.4-4.5,1-6.9,1.7
			c-2.4,0.7-4.7,1.6-6.8,2.5c-2.1,0.9-3.8,2-5.3,3.1C27.5,202,26.6,203.1,26.4,204.2z M50.2,138.7c0.9-1,1.8-2.4,2.6-4.3
			c0.8-1.9,1.5-4,2.1-6.4c0.6-2.4,1.1-5,1.4-7.7c0.4-2.7,0.5-5.4,0.6-8c0-2.6-0.1-5.1-0.5-7.4c-0.4-2.3-0.9-4.3-1.8-5.9
			c-0.7-1.5-1.6-2.5-2.7-3.2c-1.1-0.7-2.1-0.8-3-0.5c-0.4,0.2-0.8,0.5-1.3,1c-0.5,0.5-0.9,1.1-1.3,1.9c-1,2.3-1.6,4.9-1.8,7.9
			c-0.1,3,0,6.3,0.4,9.8c0.4,3.5,1.1,7.2,2,11C47.9,130.7,49,134.7,50.2,138.7z"/>
		<path class="st0" d="M79.2,129.2c1.7,0.6,3,1.6,3.9,3.2c0.9,1.6,1.6,3.3,1.9,5.2c0.3,2.7,0.5,5.4,0.4,8.3
			c-0.1,2.8-0.2,5.7-0.3,8.6c-0.1,2.9-0.1,5.8,0,8.8c0.1,3,0.4,5.9,1.1,8.8c0.7,3.2,1.7,5,3.1,5.5c1.3,0.5,2.7-0.4,4.1-2.5
			c1.4-2.1,2.6-5.5,3.7-10.1c1.1-4.6,1.9-10.5,2.2-17.6l0,0.1l0.3-1.4c0.1-2.8,0.1-5.4,0.1-7.7c-0.1-2.4-0.2-4.9-0.5-7.7
			c-0.1-0.9-0.4-1.6-0.8-2.2s-0.8-1-1.2-1.4c-0.4-0.3-0.7-0.6-1-0.9c-0.3-0.2-0.3-0.5-0.1-0.8c0.2-0.3,0.7-0.6,1.4-1
			c0.7-0.4,1.9-0.9,3.6-1.6c1.9-0.8,3.5-0.8,4.6-0.1c1.2,0.8,2.1,2,2.8,3.7c0.7,1.7,1.1,3.7,1.3,6c0.2,2.3,0.3,4.6,0.4,6.8
			c0,2.3,0,4.4-0.1,6.4c-0.1,2-0.2,3.6-0.2,4.6c-0.1,3.8-0.2,6.9-0.2,9.4c0,2.5,0.1,4.5,0.4,6.1c0.1,0.5,0.2,1,0.4,1.6
			c0.2,0.6,0.4,1.1,0.6,1.6c0.2,0.5,0.5,0.9,0.8,1.2c0.3,0.3,0.6,0.4,1,0.3c0.7-0.2,1.4-1,2.2-2.4c0.8-1.5,1.5-3.3,2.2-5.5
			c0.7-2.2,1.4-4.6,2.1-7.1c0.7-2.5,1.2-5,1.7-7.4c0.5-2.4,0.9-4.5,1.2-6.4c0.3-1.9,0.5-3.2,0.6-3.9c0.3-1.3,0.6-2,1.1-2.2
			c0.4-0.2,1.2,0.2,2.2,1.1c-0.3,1.7-0.7,3.8-1.1,6.3c-0.4,2.5-0.8,5.2-1.4,8c-0.5,2.8-1.1,5.7-1.9,8.7c-0.7,2.9-1.6,5.6-2.6,8
			c-1,2.4-2.2,4.5-3.6,6.2s-3,2.7-4.8,3.1c-3.3,0.7-5.8,0.4-7.6-1c-1.8-1.4-3-3.5-3.6-6.2l-0.4-1.5c-0.1,1.7-0.5,3.5-1.2,5.2
			c-0.7,1.7-1.6,3.3-2.8,4.7c-1.2,1.4-2.5,2.6-4.1,3.5c-1.5,0.9-3.2,1.5-5,1.6c-2.7,0.2-5-0.6-6.7-2.2c-1.7-1.6-2.9-4.2-3.6-7.7
			l-0.2-0.3c-0.5-3.1-0.8-6.6-1-10.3c-0.1-3.8-0.2-7.4-0.3-11c-0.1-3.6-0.1-6.9-0.2-9.9s-0.3-5.4-0.6-7.2c-0.1-0.8-0.3-1.5-0.6-2
			s-0.5-1-0.8-1.4c-0.1-0.6,0-1.2,0.5-1.5c0.5-0.4,1-0.6,1.7-0.8c1-0.2,1.9-0.3,2.7-0.2C78,128.8,78.7,129,79.2,129.2z"/>
		<path class="st0" d="M134.5,174.5c-2.4,0-4.6-0.4-6.4-1.2c-1.8-0.9-3.4-2.1-4.7-3.7c-1.3-1.6-2.3-3.4-3.1-5.6
			c-0.8-2.1-1.3-4.4-1.6-6.9l0-0.8c-0.2-0.9-0.2-1.9-0.2-3c0-4,0.4-8.2,1.2-12.6c0.9-4.4,2.1-8.4,3.7-12.2c1.6-3.8,3.6-7,6-9.6
			c2.4-2.6,5.2-4.2,8.3-4.7c1.6-0.3,3.3-0.2,5.1,0.2c1.8,0.4,3.4,1.4,4.7,2.8c1.3,1.4,2.3,3.4,2.8,5.9c0.5,2.5,0.4,5.7-0.5,9.7
			c-0.3,1.3-0.8,2.2-1.3,2.7c-0.6,0.5-1.1,0.7-1.5,0.6c-0.5-0.1-0.8-0.6-0.9-1.4c-0.1-0.8,0.1-1.9,0.6-3.2c0.3-1,0.5-2.1,0.6-3.3
			c0.2-1.2,0.1-2.4-0.2-3.5c-0.3-1.1-0.8-2.1-1.5-2.9c-0.7-0.8-1.8-1.2-3.3-1.3c-1.5-0.1-3,0.6-4.3,2c-1.3,1.4-2.6,3.4-3.7,5.8
			c-1.1,2.4-2.1,5.1-2.9,8.2c-0.8,3.1-1.4,6.2-1.8,9.4c-0.4,3.2-0.6,6.3-0.5,9.3c0,3,0.4,5.7,1,8c0.6,2.3,1.5,4.1,2.7,5.3
			s2.8,1.7,4.7,1.4c2.8-0.5,5.2-1.8,7.4-4.1c2.1-2.3,4.1-5.2,5.7-8.7c1.7-3.5,3.1-7.5,4.4-11.9c1.3-4.5,2.5-9.1,3.6-13.8l0.1-0.1
			l0.1-0.1c0.1-0.1,0.2-0.1,0.3-0.1c0.1,0,0.1-0.1,0.3-0.1c0.1,0,0.2-0.1,0.3-0.1c0.5-0.1,0.9,0,1.1,0.2c0.3,0.2,0.5,0.5,0.8,0.9
			c-0.5,1.8-1,4.2-1.6,6.9c-0.6,2.8-1.3,5.7-2.2,8.8s-1.9,6.3-3.2,9.4c-1.3,3.2-2.8,6-4.7,8.6c-1.9,2.6-4.1,4.6-6.6,6.3
			C140.9,173.6,137.9,174.5,134.5,174.5z"/>
		<path class="st0" d="M192.8,154.3c0,0.4,0,1,0.1,1.8c0.1,0.7,0.3,1.4,0.5,1.8c0.3,0.5,0.7,0.7,1.2,0.6c0.5-0.1,1.2-0.7,2.1-1.9
			c1-1.4,2-3.3,3.2-5.6c1.1-2.3,2.2-4.9,3.3-7.7c1.1-2.8,2.1-5.8,3.2-8.8c1-3.1,2-6,2.8-8.8c0.1-0.4,0.3-0.6,0.7-0.8
			c0.4-0.1,0.8-0.2,1.2-0.2c0.4,0,0.7,0.1,1,0.3c0.3,0.2,0.4,0.4,0.3,0.7c-0.4,1.4-1,3.4-1.7,5.9c-0.7,2.5-1.5,5.2-2.5,8.1
			c-0.9,2.9-2.1,5.9-3.3,9c-1.3,3.1-2.7,5.8-4.3,8.3c-1.6,2.5-3.3,4.5-5.2,6c-1.9,1.6-3.9,2.3-6.2,2.3c-1.3,0-2.5-0.4-3.4-1.1
			c-0.9-0.7-1.7-1.7-2.3-2.8c-0.6-1.1-1.1-2.3-1.4-3.7c-0.3-1.4-0.6-2.7-0.7-4c-0.7,1.4-1.4,2.9-2.3,4.5c-0.9,1.6-1.9,3.1-3.1,4.5
			c-1.2,1.4-2.7,2.6-4.3,3.6c-1.7,1-3.7,1.6-6,1.7c-1.7,0.1-3.3,0-4.6-0.6c-1.3-0.5-2.5-1.3-3.5-2.3c-1-1-1.7-2.2-2.3-3.6
			c-0.6-1.4-1-2.9-1.2-4.5c-0.4-2.7-0.5-5.8-0.3-9.1c0.2-3.3,0.6-6.7,1.4-10c0.7-3.4,1.7-6.7,2.9-9.9c1.2-3.2,2.7-6,4.4-8.5
			c1.7-2.5,3.6-4.5,5.8-6.1c2.2-1.6,4.5-2.4,7-2.6c2.3-0.1,4.2,0.8,5.6,2.8c1.4,2,2.6,4.4,3.4,7.2c-0.1-2.1,0-4,0.3-5.6
			c0.3-1.6,0.6-2.7,0.8-3.2c0.4-1.5,1.2-2.5,2.6-2.9c1.3-0.4,2.7-0.6,4-0.4c1.3,0.2,2.5,0.5,3.4,1c0.9,0.5,1.2,1,0.7,1.5
			c-0.4,0.4-0.7,1.6-1,3.7c-0.3,2.1-0.6,4.5-0.9,7.4c-0.3,2.9-0.5,6-0.6,9.4c-0.2,3.4-0.3,6.6-0.5,9.6c-0.1,3-0.3,5.7-0.3,8.1
			C192.8,151.9,192.8,153.5,192.8,154.3z M176.8,115.1c-2,0.5-3.9,2.1-5.6,4.7c-1.7,2.6-3.1,5.6-4.2,9.1c-1.2,3.5-2,7.2-2.6,11.1
			c-0.6,3.9-0.8,7.5-0.8,10.9c0.1,3.3,0.5,6.1,1.3,8.3c0.8,2.2,2,3.3,3.5,3.3c1.3,0,2.6-0.4,3.8-1.3c1.2-0.9,2.3-2,3.4-3.4
			c1.1-1.4,2-3,2.9-4.8c0.8-1.8,1.6-3.6,2.2-5.5c0.7-1.9,1.2-3.6,1.6-5.4c0.4-1.7,0.7-3.2,0.9-4.5c0.1-0.6,0.2-1.5,0.1-3
			c0-1.4-0.1-3-0.3-4.8c-0.2-1.8-0.4-3.6-0.7-5.4c-0.3-1.8-0.7-3.5-1.2-5c-0.5-1.5-1.1-2.6-1.8-3.5
			C178.6,115.1,177.8,114.8,176.8,115.1z"/>
		<path class="st0" d="M229.7,148.9c-0.4,3.1-1.6,5.8-3.5,8c-1.9,2.2-4.2,4-6.7,5.2c-2.5,1.3-5.2,2.1-7.9,2.4c-2.7,0.3-5,0.2-7-0.5
			c-1.5-0.5-2.5-1.3-3-2.6c-0.5-1.2-0.6-2.7-0.2-4.2s1.3-3.2,2.7-4.9c1.4-1.7,3.2-3.3,5.6-4.8c1.7-1,3.3-2,4.9-2.9
			c1.6-0.9,3.1-1.5,4.6-1.9c-0.2-0.9-0.5-1.8-1-2.6c-0.5-0.8-1-1.6-1.6-2.3c-0.6-0.7-1.2-1.5-1.8-2.2c-0.6-0.7-1.3-1.5-1.9-2.4
			c-2.6-3.8-4.4-7.1-5.6-9.9c-1.2-2.9-1.8-5.7-1.9-8.5c-0.1-2.1,0.3-4,1-5.6s1.6-3,2.8-4.2c1.1-1.1,2.3-2.1,3.7-2.8
			c1.4-0.7,2.7-1.2,3.9-1.4c3.7-0.7,5.7,0.7,5.8,4.3c0,1.4-0.2,3.1-0.7,5.1c-0.5,1.9-1.3,4.5-2.4,7.6l-1.5,4c1.8,2.5,3.5,5.2,5.2,8
			c1.7,2.8,3.2,5.5,4.5,7.9c1.3-0.8,2.5-1.7,3.7-2.7c1.2-1,2.5-2.1,3.6-3.3c1.2-1.2,2.3-2.7,3.4-4.3c1.1-1.6,2.1-3.5,3-5.6
			c0.3-0.6,0.5-0.9,0.9-0.9c0.3,0,0.6,0.1,0.9,0.4c0.3,0.3,0.5,0.7,0.6,1.3c0.1,0.6,0.1,1.2-0.1,1.8c-0.5,1.7-1.3,3.4-2.4,5
			c-1.1,1.6-2.3,3.1-3.7,4.5c-1.4,1.4-2.8,2.7-4.3,4c-1.5,1.2-3,2.4-4.4,3.4c0.5,1.3,0.8,2.7,0.9,4.1
			C230,146.7,229.9,147.9,229.7,148.9z M207,161c1,0.6,2.1,0.6,3.4,0s2.6-1.5,3.9-2.9c1.2-1.3,2.3-2.9,3.2-4.8
			c0.9-1.9,1.4-3.8,1.5-6l0.5-0.1c-0.8,0.1-1.9,0.5-3.1,1c-1.2,0.6-2.5,1.2-3.8,2c-1.3,0.8-2.5,1.7-3.7,2.7c-1.2,1-2.1,1.9-2.8,2.9
			c-0.7,1-1,1.9-0.9,2.8C205.4,159.6,206,160.3,207,161z M216.6,117.9c0.3-1,0.7-2.1,1-3.2c0.4-1.1,0.7-2.2,0.9-3.2
			c0.3-1,0.5-1.9,0.6-2.7c0.1-0.8,0.2-1.4,0.2-1.8c-0.2-1.1-0.6-1.5-1-1.1c-0.5,0.4-0.9,1.1-1.4,2.2c-0.5,1.1-0.9,2.4-1.3,3.9
			c-0.4,1.4-0.5,2.7-0.5,3.7c0,1.3,0.3,2.6,0.9,3.7L216.6,117.9z"/>
		<path class="st0" d="M284.9,157.2c-2.5,0.1-4.6-0.3-6.4-1.2c-1.8-0.9-3.4-2.1-4.6-3.8c-1.2-1.6-2.2-3.5-2.8-5.6s-1-4.4-1-6.9
			l0.1-0.6c0-0.4,0-0.9-0.1-1.4c0-0.5,0-1,0.1-1.4c0.4-3.9,1.3-7.8,2.6-11.9c1.4-4.1,3.1-7.8,5.2-11.2c2.1-3.4,4.5-6.2,7.3-8.4
			c2.7-2.2,5.7-3.4,8.8-3.5c2-0.1,3.7,0.3,5,1.1c1.3,0.8,2.2,2,2.9,3.4c0.7,1.4,1.1,3,1.2,4.8c0.1,1.8,0.1,3.6-0.1,5.4
			c-0.3,2.5-1.2,4.8-2.6,6.7c-1.4,1.9-3.1,3.6-5.2,4.9c-2,1.3-4.2,2.4-6.7,3.3c-2.4,0.9-4.8,1.4-7.2,1.8c-0.2,0.8-0.4,1.8-0.6,3
			c-0.2,1.2-0.3,2.5-0.4,3.9c-0.1,1.4,0,2.8,0,4.3c0.1,1.4,0.4,2.7,0.8,3.9c0.4,1.2,1,2.1,1.8,2.9c0.8,0.8,1.8,1.3,3.2,1.4
			c2,0.2,3.9-0.2,5.8-1.3c1.9-1.1,3.7-2.6,5.5-4.5c1.8-1.9,3.4-4,5-6.5c1.5-2.5,3-5,4.3-7.5c1.3-2.5,2.5-5,3.5-7.4
			c1-2.4,1.9-4.5,2.6-6.3c0.2-0.4,0.4-0.7,0.8-0.7c0.4,0,0.8,0,1.1,0.2s0.7,0.4,0.9,0.7c0.3,0.3,0.3,0.7,0.1,1
			c-0.7,1.7-1.5,3.7-2.5,6.1c-0.9,2.4-2.1,5-3.4,7.8s-2.8,5.5-4.5,8.2c-1.7,2.7-3.5,5.2-5.6,7.4c-2.1,2.2-4.4,4.1-6.8,5.5
			C290.5,156.3,287.8,157.1,284.9,157.2z M295.8,109.6c-1.3,0.1-2.5,0.8-3.8,2.2c-1.3,1.4-2.5,3.1-3.7,5.1c-1.2,2-2.2,4-3.2,6.2
			c-1,2.2-1.8,4-2.4,5.6c1.6-0.1,3.3-0.4,5.1-0.9c1.9-0.5,3.6-1.2,5.3-2.2c1.6-1,3-2.2,4.2-3.6c1.2-1.5,1.9-3.2,2.1-5.2
			c0-0.5,0-1.2-0.1-2.1c-0.1-0.8-0.3-1.6-0.6-2.4c-0.3-0.8-0.7-1.4-1.2-1.9C297.1,109.8,296.5,109.5,295.8,109.6z"/>
		<path class="st0" d="M378,135.1c-1.2-0.6-2.2-1.6-2.9-3c-0.7-1.4-0.9-2.9-0.8-4.4c0.2-1.6,0.9-3.1,2.1-4.6s3.1-2.7,5.6-3.6
			c1.9-0.7,4.1-1,6.5-1.1c2.4,0,4.7,0.1,7,0.4c2.3,0.3,4.4,0.7,6.4,1.2c2,0.5,3.6,0.9,4.7,1.2c2.6-4.5,5.1-9.3,7.6-14.2
			c2.5-5,4.8-10.1,7-15.2c2.2-5.1,4.2-10.3,5.9-15.4c1.8-5.1,3.3-10.1,4.4-14.9c0.3-0.7,0.8-1.2,1.4-1.7c0.6-0.5,1.5-0.7,2.5-0.7
			c1.9,0,3.4,0.4,4.6,1.1c1.2,0.7,2.1,1.7,2.8,2.8c0.7,1.2,1.1,2.6,1.4,4.1c0.2,1.6,0.3,3.2,0.3,4.9l-0.1,3.4
			c-0.4,3.2-0.9,6.8-1.7,10.9c-0.8,4.1-1.6,8.5-2.6,13c-1,4.6-2,9.3-3.1,14.1c-1.1,4.8-2.2,9.5-3.2,14.2c1.2,0.1,2.6,0.1,4.2,0.2
			c1.6,0,3.3-0.2,5.1-0.6c1.7-0.4,3.5-1.1,5.2-2.2c1.7-1,3.3-2.6,4.7-4.8c0.4-0.5,0.8-0.8,1.1-0.8c0.4,0,0.7,0.1,1,0.4
			s0.4,0.7,0.5,1.2c0.1,0.5,0,1-0.3,1.5c-1.2,2.2-2.7,3.9-4.5,5.1c-1.7,1.2-3.6,2.1-5.5,2.7c-2,0.6-4,1-6.1,1.3
			c-2.1,0.2-4.1,0.4-6.1,0.6l0-0.2l-0.2,0.2c-0.7,2.6-1.1,5.4-1.5,8.2c-0.3,2.8-0.5,5.7-0.5,8.5c0,2.8,0.1,5.4,0.3,7.9
			c0.2,2.5,0.7,4.7,1.2,6.6c0.6,1.9,1.3,3.4,2.1,4.5c0.8,1.1,1.8,1.6,2.9,1.5c1.3-0.2,2.5-0.8,3.5-2c1-1.2,1.6-2.4,1.7-3.8
			c0.1-1.3-0.2-2.5-1.2-3.6c-0.9-1-2.7-1.5-5.2-1.3c-0.3,0-0.6-0.1-1-0.3c-0.4-0.2-0.6-0.4-0.7-0.7c-0.1-0.3,0-0.6,0.3-0.9
			c0.3-0.3,1-0.6,2-0.7c2.2-0.4,4-0.1,5.4,0.7c1.4,0.8,2.4,2,3,3.4c0.6,1.4,0.8,3,0.6,4.6c-0.2,1.6-0.8,3.1-1.8,4.4
			c-1,1.3-2.4,2.3-4.2,2.9c-1.8,0.6-4,0.6-6.6-0.1c-2.8-0.8-5.1-2.1-6.8-4.1c-1.7-1.9-3-4.2-3.9-6.7c-0.9-2.5-1.5-5.3-1.8-8.2
			c-0.3-2.9-0.4-5.8-0.3-8.5c0.1-2.8,0.2-5.3,0.6-7.7c0.3-2.4,0.6-4.2,0.8-5.7c0.2-1.4,0.3-2.2,0.3-2.5c0-0.2-0.2,0.4-0.7,1.9
			c-2-0.5-4-1.2-6.2-2.1c-2.2-0.9-4.3-1.7-6.3-2.4c-1.6,2.7-3.3,5.4-5.1,8.1c-1.8,2.8-3.7,5.4-5.7,7.9c-2,2.5-4.1,4.9-6.4,7
			c-2.3,2.1-4.7,3.9-7.3,5.4c-2.6,1.4-5.3,2.5-8.3,3c-2.9,0.6-6.1,0.6-9.4-0.1c-4.7-0.8-8.4-2.4-11.2-4.8c-2.8-2.4-4.9-5.1-6.1-8.3
			c-1.3-3.2-1.8-6.6-1.5-10.2c0.2-3.7,1-7.2,2.5-10.7c1.4-3.5,3.4-6.6,5.9-9.5c2.5-2.9,5.4-5.2,8.8-6.8c2.7-1.3,5.6-2.2,8.5-2.5
			c2.9-0.3,5.7-0.2,8.3,0.5c2.6,0.7,4.8,1.7,6.7,3.3c1.9,1.5,3.1,3.5,3.7,5.9c0.3,1.4,0.4,2.5,0.2,3.2c-0.2,0.8-0.5,1.3-0.9,1.5
			c-0.4,0.2-0.9,0.1-1.4-0.3c-0.5-0.4-0.9-1.2-1.2-2.3c-0.6-2.1-1.5-3.7-3-4.9c-1.4-1.2-3-2-4.9-2.3c-1.8-0.4-3.8-0.3-5.9,0.1
			c-2.1,0.4-4,1.3-5.9,2.5c-2.4,1.6-4.4,3.6-6.1,6.2c-1.7,2.5-3,5.3-3.9,8.2c-0.9,3-1.5,5.9-1.6,9c-0.2,3,0.1,5.8,0.8,8.4
			c0.7,2.6,1.8,4.8,3.3,6.6c1.6,1.8,3.6,3,6,3.5c3.2,0.7,6.2,0.7,9,0c2.8-0.7,5.5-2.2,8.3-4.5s5.6-5.4,8.6-9.4s6.2-8.9,9.8-14.8
			c-0.7-0.4-1.8-0.9-3.5-1.4s-3.6-0.9-5.6-1.2c-2.1-0.3-4.2-0.5-6.4-0.4c-2.2,0-4.1,0.3-5.8,0.8c-1.4,0.5-2.5,1.2-3.1,2.1
			c-0.6,1-0.9,2-0.9,3c0,1,0.3,2,0.9,2.9c0.6,0.9,1.3,1.5,2.3,1.8c1.1,0.3,1.8,0.8,2.1,1.4c0.3,0.6,0.3,1.1,0,1.5
			c-0.3,0.4-1,0.6-1.9,0.6C380.8,136.4,379.5,136,378,135.1z M411.5,122.8c1.7,0.7,3.5,1.3,5.5,2c1.9,0.6,3.7,1.1,5.5,1.6
			c1.8-8.4,3.4-16.1,4.7-23.3c1.4-7.2,2.6-13.5,3.7-18.8c-1.3,3.8-2.8,7.4-4.3,10.7c-1.5,3.3-3.1,6.5-4.7,9.5
			c-1.6,3.1-3.3,6.1-5,9.1C414.9,116.5,413.2,119.6,411.5,122.8z"/>
		<path class="st0" d="M505.6,105.6c2.7,0.2,4.6,1.2,5.8,2.9c1.2,1.7,1.4,3.9,0.7,6.5c-0.2,0.5-0.6,1.9-1.4,4.1
			c-0.8,2.2-1.7,4.9-2.7,7.9c-1,3.1-2,6.3-3.1,9.7c-1,3.4-1.9,6.6-2.6,9.5c-0.7,2.9-1.1,5.3-1.2,7.2c-0.1,1.9,0.3,2.9,1.2,3
			c0.9,0.1,2-0.6,3.4-2c1.4-1.4,2.8-3.2,4.3-5.4c1.5-2.2,3.1-4.7,4.6-7.4s3-5.4,4.4-7.9c1.4-2.5,2.5-4.8,3.5-6.9
			c1-2.1,1.6-3.6,2-4.5c0.2-0.7,0.6-1.2,1.1-1.4c0.5-0.2,1-0.3,1.5-0.1c0.5,0.2,0.8,0.5,1,1c0.2,0.5,0.1,1.1-0.3,1.9
			c-0.6,1.3-1.5,3.1-2.6,5.6c-1.1,2.4-2.4,5.1-4,8c-1.5,2.9-3.2,5.8-5,8.8c-1.8,3-3.7,5.6-5.8,8c-2,2.3-4.1,4.2-6.2,5.6
			c-2.1,1.4-4.2,1.9-6.4,1.5c-2.1-0.3-3.6-1.4-4.5-3.2c-0.9-1.8-1.3-4-1.2-6.6c0-2.6,0.4-5.5,1.1-8.7c0.7-3.2,1.4-6.4,2.3-9.5
			c0.9-3.1,1.8-6.1,2.7-9c0.9-2.9,1.5-5.2,2-7.1c0.4-1.7,0.4-2.8,0.2-3.2c-0.2-0.4-0.6-0.5-1.2-0.2c-0.6,0.3-1.2,0.8-1.9,1.5
			c-0.7,0.7-1.3,1.3-1.9,1.9c-0.9,1-1.9,2.2-2.9,3.5c-1,1.3-2.1,2.7-3.1,4c-1,1.3-1.9,2.6-2.8,3.9c-0.9,1.2-1.6,2.3-2.2,3.2
			c-2.8,4.3-5.1,8.6-6.8,12.8c-1.7,4.2-2.2,8.6-1.6,13.2c0.1,0.6,0.1,0.9,0.1,1c0,0.7-0.6,1-1.7,1c-1.9,0.1-3.3-0.7-4.1-2.5
			c-0.8-1.7-1.2-4-1.2-6.7c0-2.7,0.2-5.8,0.8-9.3c0.6-3.4,1.3-6.8,2.1-10.1c0.8-3.3,1.6-6.4,2.5-9.2c0.8-2.9,1.5-5.1,2-6.7
			c0.3-1.1,0.5-2,0.6-2.8s-0.1-1.2-0.4-1.3c-0.3-0.2-0.9,0-1.7,0.5c-0.8,0.5-1.8,1.4-3.1,2.8c-2.8,3.6-5.4,7.2-7.9,10.8
			c-2.4,3.6-4.5,7.1-6.1,10.4c-1,2-1.9,4.1-2.7,6.5c-0.8,2.4-1.3,4.7-1.6,6.9l-0.3,2.1c-0.1,1.1-0.1,2.1,0,2.9
			c0.1,0.8,0.1,1.5,0.2,2c0.1,0.6,0.1,0.9,0.1,1c-0.1,0.7-0.6,1-1.6,1c-1.6-0.1-2.9-0.6-3.8-1.3c-0.9-0.8-1.6-1.7-2-2.9
			c-0.4-1.1-0.7-2.4-0.7-3.8s0-2.8,0.2-4.3l0.4-2.9c0.4-2.4,1-5,1.9-8c0.8-2.9,1.7-5.9,2.5-8.9c0.9-3,1.7-6,2.4-8.8
			c0.8-2.9,1.3-5.5,1.6-7.8c0.1-0.9,0.1-1.7-0.2-2.3c-0.3-0.7-0.5-1.2-0.9-1.6c-0.3-0.4-0.6-0.8-0.9-1.1c-0.2-0.3-0.3-0.6-0.1-0.8
			c0.2-0.2,0.6-0.4,1.3-0.5c0.7-0.1,1.8-0.3,3.3-0.4c1.7-0.2,3.1,0.2,4.1,1c1,0.9,1.8,1.9,2.3,3.2c0.5,1.3,0.8,2.7,0.9,4.2
			c0.1,1.5,0,2.8-0.1,3.9c-0.3,1.2-0.6,2.5-0.9,3.8c-0.3,1.3-0.7,2.5-1.1,3.6c0.4-0.4,1-1.2,1.7-2.6c0.8-1.3,1.7-2.8,2.7-4.5
			c1.1-1.7,2.2-3.3,3.6-5c1.3-1.6,2.7-3,4.2-4c0-0.2,0.2-0.5,0.4-0.6c0.3-0.2,0.8-0.4,1.6-0.6c0.9-0.4,2-0.6,3.2-0.7
			c4.1,0.2,6.4,2.1,6.9,5.4c0.5,3.4-0.4,8.6-2.6,15.7c1.4-1.6,3.1-3.6,4.9-5.9c1.8-2.3,3.6-4.4,5.5-6.4c1.9-2,3.8-3.7,5.8-5.1
			C502.1,106.1,503.9,105.5,505.6,105.6z"/>
		<path class="st0" d="M550.6,156.1c-0.1,0.4-0.2,1-0.3,1.7c-0.1,0.7-0.1,1.4,0.1,1.9c0.1,0.5,0.5,0.8,1,0.8c0.5,0,1.4-0.4,2.5-1.4
			c1.3-1.1,2.8-2.7,4.4-4.7c1.7-2,3.4-4.2,5.1-6.7s3.4-5.1,5.2-7.8c1.7-2.7,3.3-5.4,4.9-7.9c0.2-0.3,0.5-0.5,0.9-0.6
			c0.4,0,0.8,0,1.2,0.1c0.4,0.1,0.7,0.3,0.9,0.5c0.2,0.2,0.3,0.5,0.1,0.8c-0.8,1.3-1.8,3.1-3,5.3c-1.3,2.3-2.7,4.7-4.3,7.3
			c-1.6,2.6-3.4,5.3-5.4,7.9c-2,2.7-4,5-6.1,7s-4.3,3.5-6.4,4.6c-2.2,1.1-4.4,1.3-6.5,0.8c-1.3-0.3-2.3-1-3-1.9
			c-0.7-0.9-1.2-2-1.6-3.2c-0.3-1.2-0.5-2.5-0.5-3.9c0-1.4,0.1-2.7,0.3-4c-1,1.2-2.1,2.5-3.3,3.9c-1.2,1.4-2.6,2.6-4.1,3.7
			c-1.5,1.1-3.2,1.9-5.1,2.5c-1.9,0.6-3.9,0.6-6.2,0.2c-1.7-0.3-3.2-0.8-4.3-1.7c-1.2-0.8-2.1-1.9-2.8-3.1c-0.7-1.2-1.2-2.6-1.4-4.1
			c-0.2-1.5-0.3-3.1-0.1-4.7c0.3-2.7,0.9-5.7,1.8-8.9c1-3.2,2.2-6.3,3.7-9.4c1.5-3.1,3.3-6.1,5.2-8.9c1.9-2.8,4-5.2,6.3-7.3
			c2.2-2,4.6-3.6,7.1-4.6c2.5-1,5-1.3,7.4-0.8c2.2,0.5,3.8,1.8,4.8,4.1c0.9,2.3,1.5,4.9,1.6,7.9c0.4-2.1,0.9-3.8,1.6-5.3
			c0.7-1.5,1.2-2.5,1.5-2.9c0.7-1.4,1.8-2.1,3.2-2.2c1.4-0.1,2.7,0.1,4,0.6c1.3,0.5,2.3,1.1,3,1.8c0.8,0.7,0.9,1.3,0.3,1.6
			c-0.5,0.3-1.1,1.4-1.9,3.4c-0.8,1.9-1.7,4.3-2.6,7c-0.9,2.7-1.9,5.7-2.8,8.9c-1,3.2-1.9,6.3-2.7,9.2c-0.9,2.9-1.6,5.5-2.3,7.8
			C551.3,153.7,550.8,155.3,550.6,156.1z M544.4,114.2c-2.1,0-4.3,1.1-6.5,3.2c-2.2,2.1-4.3,4.7-6.2,7.8c-1.9,3.1-3.7,6.5-5.2,10.2
			c-1.5,3.7-2.6,7.1-3.3,10.4c-0.7,3.3-1,6-0.7,8.3c0.2,2.3,1.1,3.7,2.6,4.1c1.3,0.3,2.6,0.2,4-0.3c1.4-0.6,2.7-1.4,4.1-2.5
			c1.4-1.1,2.7-2.5,3.9-4c1.2-1.5,2.4-3.1,3.5-4.8c1.1-1.7,2-3.3,2.8-4.8c0.8-1.6,1.5-3,1.9-4.2c0.2-0.5,0.5-1.5,0.8-2.8
			c0.3-1.4,0.6-2.9,0.9-4.7c0.3-1.7,0.5-3.6,0.6-5.4c0.1-1.9,0.1-3.6,0-5.1c-0.1-1.6-0.5-2.8-0.9-3.8
			C546.2,114.7,545.5,114.2,544.4,114.2z"/>
		<path class="st0" d="M579.4,136.1c0.6-0.7,1.3-1.5,2-2.2c0.7-0.7,1.4-1.4,2-2.1c1.7-1.6,3.5-3.2,5.2-5s3.6-3.2,5.4-4.6
			c1.8-1.4,3.7-2.4,5.6-3.2c1.9-0.7,3.7-1,5.6-0.6c2.7,0.5,4.5,1.6,5.5,3.4c1,1.8,1,4,0.1,6.5c-0.2,0.5-0.8,1.8-1.9,3.9
			c-1,2.1-2.2,4.5-3.6,7.3c-1.4,2.8-2.8,5.8-4.3,9c-1.5,3.2-2.7,6.1-3.7,8.9c-1,2.7-1.7,5-2,6.8c-0.3,1.8-0.1,2.8,0.8,3
			c0.7,0.1,1.6-0.3,2.8-1.3c1.2-0.9,2.6-2.2,4-3.8s3-3.3,4.5-5.2c1.6-1.9,3.1-3.8,4.5-5.6c1.4-1.8,2.7-3.5,3.7-5
			c1.1-1.5,1.9-2.6,2.4-3.3c0-0.2,0.1-0.4,0.2-0.4l0.1,0.1l0.5-0.9c0.2-0.3,0.5-0.5,0.7-0.7s0.6-0.3,1-0.2c0.8,0.1,1.4,0.7,1.6,1.7
			c-0.4,0.5-0.8,1.1-1.4,1.8c-0.5,0.7-1,1.4-1.4,2.2l-1.3,1.8c-1.2,1.7-2.5,3.5-3.9,5.5c-1.4,2-2.8,4-4.3,6c-1.5,2-3,3.8-4.7,5.6
			c-1.6,1.8-3.2,3.3-4.9,4.6c-1.6,1.2-3.3,2.1-5,2.6c-1.7,0.5-3.4,0.5-5-0.1c-1.6-0.5-2.8-1.3-3.6-2.3c-0.8-1-1.4-2.1-1.7-3.4
			c-0.3-1.2-0.4-2.6-0.2-4c0.2-1.4,0.5-2.8,1-4.2c1-2.8,2-5.6,3.1-8.4c1.1-2.8,2.2-5.5,3.3-8.2c1.1-2.6,2.1-5.1,3.1-7.4
			c1-2.3,1.9-4.3,2.7-6.1c1.4-3.1,1.7-4.7,0.9-4.9c-0.8-0.2-2.8,0.9-5.9,3.2c-1.3,1-2.7,2.3-4.1,3.6c-1.4,1.4-2.7,2.8-4.1,4.3
			c-1.3,1.5-2.6,2.9-3.8,4.3c-1.2,1.4-2.3,2.7-3.3,3.8l-1.6,1.9l0-0.1l-1.6,1.7c-1.2,1.8-2.3,3.9-3.3,6.2c-1.1,2.3-1.9,4.5-2.6,6.7
			c-0.2,0.6-0.3,1.3-0.4,2.1c-0.3,1.1-0.5,2-0.5,2.8c0,0.8-0.1,1.4-0.1,2c0.1,0.3,0.1,0.5,0.1,0.6c0,0.2,0,0.3,0,0.4
			c-0.1,0.7-0.6,1-1.7,0.8c-1.6-0.3-2.8-0.8-3.5-1.7c-0.8-0.9-1.2-1.9-1.4-3c-0.2-1.2-0.2-2.5,0-3.9c0.2-1.4,0.4-2.8,0.7-4.3
			c0.5-2.1,1.2-4.5,2.1-7.1c0.9-2.6,1.9-5.3,3-7.9c1.1-2.7,2.2-5.3,3.4-7.9c1.1-2.6,2.1-4.9,3-6.9c0.9-2,1.6-3.7,2.1-5.1
			c0.5-1.3,0.8-2.1,0.7-2.3c-0.3-0.5-0.6-1-0.9-1.6c-0.3-0.6-0.5-1.1-0.5-1.5c0-0.5,0.2-0.8,0.7-1.1c0.5-0.3,1.4-0.4,2.8-0.2
			c2.6,0.2,4.4,0.7,5.5,1.6c1.1,0.9,1.7,1.9,1.9,3.2c0.2,1.2,0.1,2.5-0.4,3.8c-0.4,1.3-0.9,2.5-1.4,3.6c-0.5,1-0.9,1.8-1.2,2.5
			c-0.3,0.7-0.7,1.5-1,2.3c-0.3,0.8-0.6,1.6-1,2.4C580.3,134.1,579.9,135.1,579.4,136.1z"/>
		<path class="st0" d="M643.2,173.1c-0.1,0.4-0.3,1-0.5,1.9c-0.2,0.9-0.3,1.6-0.3,2.3c0,0.7,0.3,1.1,0.8,1.3
			c0.5,0.2,1.4-0.2,2.8-1.2c1.8-1.2,3.6-2.6,5.4-4.1c1.8-1.5,3.7-3.2,5.7-5.2c2-2,4.2-4.3,6.5-6.8s4.8-5.6,7.6-9c0.6,0,1.1,0,1.3,0
			c0.5,0.1,0.8,0.3,0.9,0.7c0.2,0.3,0.3,0.7,0.3,1.1l-1,1.4c-0.8,1-2,2.5-3.5,4.4c-1.5,2-3.2,4.1-5.2,6.5s-4.1,4.6-6.4,6.9
			c-2.3,2.3-4.7,4.3-7.1,5.9c-2.4,1.7-4.8,2.8-7.2,3.4c-2.4,0.6-4.7,0.4-6.7-0.7c-1.2-0.6-2.1-1.5-2.8-2.5c-0.6-1.1-1-2.3-1.2-3.6
			c-0.2-1.3-0.2-2.7,0-4.2c0.2-1.4,0.5-2.8,0.9-4.1c0.2-0.5,0.3-0.9,0.5-1.4c0.1-0.5,0.3-0.9,0.6-1.3c-0.6,1-1.6,2.3-3,3.8
			c-1.4,1.5-3,2.9-4.8,4.3c-1.8,1.3-3.9,2.4-6,3.1c-2.2,0.8-4.3,0.9-6.5,0.3c-1.7-0.4-3.1-1.1-4.2-2.1c-1.1-1-2-2.1-2.5-3.4
			c-0.5-1.3-0.9-2.7-0.9-4.3c-0.1-1.6,0.1-3.1,0.4-4.7c0.6-2.9,1.6-5.9,3-9c1.4-3.1,3.1-6.2,5-9.1c2-2.9,4.2-5.7,6.6-8.1
			c2.4-2.5,5-4.5,7.6-6.2c2.7-1.6,5.4-2.7,8.2-3.2c2.8-0.5,5.5-0.2,8.2,0.8c0.7,0.3,1.4,0.9,2,1.7c0.6,0.8,1,1.8,1.3,3.1
			s0.3,2.8,0.1,4.5c-0.2,1.7-0.7,3.6-1.6,5.8c0.6-1,1.2-2.3,1.9-3.9c0.7-1.6,1.4-3.1,2.1-4.8c0.7-1.6,1.4-3.2,2-4.6
			c0.6-1.5,1.2-2.7,1.7-3.6c0.8-1.5,1.5-3.2,2.3-5c0.8-1.8,1.6-3.5,2.2-5.1c0.7-1.6,1.3-3,1.8-4.3c0.5-1.3,0.8-2.3,1-3
			c0.3-1,0.3-1.7,0.1-2.1s-0.5-0.5-0.8-0.6c-0.3-0.1-0.7-0.2-1.2-0.2c-0.4,0-0.8-0.3-1-0.7c-0.2-0.3-0.2-0.6-0.2-1
			c0.1-0.4,0.3-0.7,0.8-1c0.4-0.3,1.1-0.5,2-0.6c0.9-0.1,2.2,0.1,3.7,0.5c1.8,0.4,3.2,1.1,4.1,1.9c0.9,0.8,1.6,1.8,1.9,2.8
			c0.3,1,0.4,2.1,0.2,3.3c-0.2,1.2-0.5,2.3-0.9,3.4c-1,2.5-2.2,5.3-3.8,8.5c-1.5,3.2-3.2,6.6-5,10.2c-1.8,3.6-3.6,7.3-5.6,11
			c-1.9,3.8-3.8,7.4-5.5,11c-1.7,3.6-3.3,6.9-4.8,10.2C645.1,167.8,644,170.7,643.2,173.1z M644.1,131.1c-1.5-0.5-3.2-0.3-5,0.5
			c-1.8,0.8-3.7,2.2-5.5,3.9c-1.9,1.8-3.7,3.8-5.5,6.2c-1.8,2.4-3.5,4.9-5,7.5c-1.5,2.6-2.8,5.2-4,7.9c-1.1,2.6-2,5-2.5,7.1
			c-0.5,2.1-0.6,3.9-0.4,5.4c0.3,1.5,1,2.3,2.2,2.6c1.6,0.4,3.3-0.1,5.3-1.3c2-1.3,3.9-2.9,5.9-4.9c2-2,3.9-4.1,5.7-6.3
			c1.8-2.2,3.4-4.1,4.8-5.7c0.2-0.3,0.5-1,1.1-2.1c0.5-1.2,1.1-2.5,1.6-4.1c0.5-1.6,1.1-3.3,1.6-5.2c0.5-1.8,0.9-3.6,1.1-5.2
			c0.2-1.6,0.2-3,0.1-4.2C645.4,132.1,644.9,131.4,644.1,131.1z"/>
		<path class="st0" d="M689.2,188.7c-0.2,0.4-0.5,0.9-0.8,1.6c-0.3,0.7-0.4,1.3-0.4,1.9c0,0.5,0.3,0.9,0.8,1.1
			c0.5,0.2,1.4,0,2.8-0.6c1.5-0.7,3.4-1.8,5.5-3.3c2.1-1.5,4.4-3.2,6.7-5.1c2.3-1.9,4.7-4,7.1-6.1c2.4-2.2,4.7-4.3,6.8-6.3
			c0.2-0.3,0.6-0.4,1-0.3c0.4,0.1,0.8,0.2,1.1,0.4c0.3,0.2,0.6,0.5,0.8,0.8c0.2,0.3,0.1,0.6-0.1,0.8c-1.1,1-2.5,2.5-4.4,4.3
			c-1.8,1.8-3.9,3.8-6.1,5.9c-2.3,2.1-4.7,4.1-7.3,6.2c-2.6,2-5.2,3.7-7.8,5.1c-2.6,1.4-5.1,2.3-7.5,2.7c-2.4,0.4-4.6,0.1-6.5-1
			c-1.2-0.7-1.9-1.6-2.4-2.6c-0.4-1.1-0.6-2.3-0.6-3.5c0-1.3,0.2-2.6,0.6-3.9c0.4-1.3,0.8-2.6,1.3-3.8c-1.3,0.9-2.7,1.8-4.2,2.8
			c-1.5,1-3.2,1.8-5,2.4c-1.8,0.6-3.6,1-5.5,1c-1.9,0-4-0.4-6.1-1.5c-1.6-0.7-2.8-1.6-3.7-2.8c-0.9-1.1-1.5-2.4-1.9-3.7
			c-0.3-1.3-0.4-2.8-0.3-4.3c0.2-1.5,0.6-3,1.2-4.5c1-2.6,2.4-5.3,4.2-8.1c1.8-2.8,3.8-5.5,6.1-8.1c2.3-2.6,4.8-5,7.4-7.2
			c2.6-2.2,5.3-4,8-5.3c2.7-1.3,5.4-2.2,8.1-2.5c2.7-0.3,5.1,0.1,7.4,1.2c2,1,3.2,2.8,3.5,5.2c0.3,2.4,0.1,5.1-0.6,8
			c0.9-1.9,1.9-3.5,3-4.7c1.1-1.2,1.8-2,2.2-2.4c1.1-1.1,2.3-1.5,3.6-1.3c1.4,0.3,2.6,0.8,3.7,1.6c1.1,0.8,1.9,1.7,2.4,2.6
			c0.5,0.9,0.5,1.5-0.1,1.7c-0.5,0.2-1.4,1.1-2.7,2.7c-1.3,1.6-2.8,3.6-4.4,6c-1.6,2.4-3.4,5-5.2,7.8c-1.8,2.9-3.5,5.6-5.1,8.1
			c-1.6,2.6-3,4.9-4.3,6.9C690.5,186.6,689.7,188,689.2,188.7z M694.6,146.7c-2.1-0.5-4.4-0.1-7.1,1.3c-2.7,1.4-5.4,3.4-8.1,5.8
			c-2.7,2.5-5.3,5.3-7.7,8.4c-2.4,3.1-4.4,6.1-6,9.1c-1.6,2.9-2.6,5.6-3,7.8c-0.4,2.3,0.1,3.8,1.4,4.6c1.1,0.7,2.5,0.9,3.9,0.8
			c1.5-0.2,3-0.6,4.6-1.3c1.6-0.7,3.3-1.7,4.9-2.8c1.6-1.1,3.2-2.4,4.6-3.7c1.5-1.3,2.8-2.6,4-3.9c1.2-1.3,2.2-2.4,3-3.5
			c0.4-0.4,0.9-1.3,1.6-2.5c0.7-1.2,1.4-2.7,2.1-4.3c0.7-1.6,1.4-3.3,2-5c0.6-1.8,1.1-3.4,1.4-4.9c0.3-1.5,0.3-2.8,0.1-3.9
			C696.2,147.7,695.6,147,694.6,146.7z"/>
	</g>
	<g>
		<path class="st0" d="M373.1,21.4c-0.2-0.7-0.6-1.4-1.1-2c-0.6-0.6-1.2-0.9-1.8-1.2c-1.2-0.6-2.8-0.8-4.1-0.4
			c-2.6,0.8-4.1,2.7-5.4,4.4c-1.2,1.8-2.2,3.8-2.9,5.8c-0.6-1.9-1.6-3.8-3-5.4c-1.3-1.6-3.3-3.1-5.8-3.3c-1.2-0.1-2.4,0.1-3.6,0.5
			c-0.7,0.2-1.4,0.8-1.9,1.4c-0.5,0.7-0.7,1.4-0.8,2.1c-0.3,2.7,0.4,4.7,1,6.8c1.4,4,3.4,7.6,5.4,11.2c2.1,3.5,4.3,6.9,6.7,10.3
			l2,2.8l2-2.8c2.6-3.5,4.8-7.1,7-10.8c2.1-3.8,4.1-7.6,5.4-11.9C373.1,26.5,373.8,24.2,373.1,21.4z"/>
		<g>
			<g>
				<path class="st0" d="M336.5,34.8c-3.5-2.6-7.3-4.7-11.2-6.4c-3.9-1.7-8-3-12.2-3.8c-4.2-0.9-8.4-1.3-12.6-1.3
					c-4.2-0.1-8.4,0.5-12.8,1c-4.3,0.5-8.7,1-13,1.5c-4.3,0.5-8.7,1.1-13,1.7c-8.7,1.3-17.3,2.9-25.9,4.5
					c-8.6,1.6-17.4,2.8-26.1,3.5c-8.8,0.7-17.6,1-26.5,0.4c-8.8-0.7-17.8-2.1-26.2-5.4c-4.2-1.5-8.2-3.7-11.9-6.3l-2.7-2.1
					c-0.9-0.7-1.6-1.6-2.4-2.3c-1.7-1.5-2.9-3.4-4.2-5.2l0.4-0.3c3,3.1,6.4,5.9,10.1,7.9c3.7,2.1,7.7,3.7,11.8,4.8
					c8.2,2.4,16.7,3.5,25.3,4c8.6,0.5,17.3,0.6,25.9,0.2c8.7-0.4,17.4-1,26.1-1.7c8.7-0.8,17.4-1.8,26-3.5
					c8.6-1.6,17.1-3.8,25.7-5.5c8.6-1.7,18.1-1.9,26.7,0.6c8.7,2.3,16.9,6.7,22.9,13.2L336.5,34.8z"/>
				<path class="st0" d="M140.2,5.5c0.5,0.9,0.7,1.6,0.3,2.5c-0.3,0.7-1.2,1.1-2,0.9c-1-0.2-1.4-0.9-1.8-1.8
					C136,5.2,139.2,3.6,140.2,5.5z"/>
				<path class="st0" d="M128.4,12.5c0.4,0.2,0.7,0.4,1,0.7c2.1,2.1-1.4,5-3,2.6c-0.1-0.2-0.3-0.4-0.4-0.6
					C125.2,13.5,126.6,11.8,128.4,12.5z"/>
				<path class="st0" d="M128.6,0.2c1.1,0.5,1.6,1.3,2.1,2.4c0.5,1.3-0.6,2.8-1.9,2.9c-1.5,0-2.5-0.4-3.4-1.7
					C123.9,1.8,126.4-0.8,128.6,0.2z"/>
			</g>
			<g>
				<path class="st0" d="M383.9,34.5c6.1-6.5,14.3-10.9,22.9-13.2c8.7-2.4,18.1-2.3,26.7-0.6c8.7,1.6,17.1,3.9,25.7,5.5
					c8.6,1.6,17.3,2.7,26,3.5c8.7,0.7,17.4,1.3,26.1,1.7c8.7,0.4,17.3,0.3,25.9-0.2c8.6-0.4,17.2-1.6,25.3-4
					c4.1-1.1,8.1-2.8,11.8-4.8c3.7-2.1,7.1-4.8,10.1-7.9l0.4,0.3c-1.3,1.7-2.5,3.7-4.2,5.2c-0.8,0.8-1.5,1.7-2.4,2.3l-2.7,2.1
					c-3.7,2.5-7.7,4.8-11.9,6.3c-8.4,3.2-17.3,4.7-26.2,5.4c-8.9,0.6-17.7,0.3-26.5-0.4c-8.8-0.7-17.5-1.9-26.1-3.5
					c-8.6-1.5-17.2-3.2-25.9-4.5c-4.3-0.7-8.7-1.2-13-1.7c-4.3-0.5-8.7-1-13-1.5c-4.3-0.5-8.6-1.1-12.8-1c-4.2,0-8.5,0.4-12.6,1.3
					c-4.2,0.9-8.2,2.1-12.2,3.8c-3.9,1.7-7.8,3.8-11.2,6.4L383.9,34.5z"/>
				<path class="st0" d="M580.5,5.5c-0.5,0.9-0.7,1.6-0.3,2.5c0.3,0.7,1.2,1.1,2,0.9c1-0.2,1.4-0.9,1.8-1.8
					C584.7,5.2,581.5,3.6,580.5,5.5z"/>
				<path class="st0" d="M592.3,12.5c-0.4,0.2-0.7,0.4-1,0.7c-2.1,2.1,1.4,5,3,2.6c0.1-0.2,0.3-0.4,0.4-0.6
					C595.6,13.5,594.1,11.8,592.3,12.5z"/>
				<path class="st0" d="M592.1,0.2c-1.1,0.5-1.6,1.3-2.1,2.4c-0.5,1.3,0.6,2.8,1.9,2.9c1.5,0,2.5-0.4,3.4-1.7
					C596.8,1.8,594.3-0.8,592.1,0.2z"/>
			</g>
		</g>
	</g>
	<g>
		<path class="st0" d="M373.1,224.4c-0.2-0.7-0.6-1.4-1.1-2c-0.6-0.6-1.2-0.9-1.8-1.2c-1.2-0.6-2.8-0.8-4.1-0.4
			c-2.6,0.8-4.1,2.7-5.4,4.4c-1.2,1.8-2.2,3.8-2.9,5.8c-0.6-1.9-1.6-3.8-3-5.4c-1.3-1.6-3.3-3.1-5.8-3.3c-1.2-0.1-2.4,0.1-3.6,0.5
			c-0.7,0.2-1.4,0.8-1.9,1.4c-0.5,0.7-0.7,1.4-0.8,2.1c-0.3,2.7,0.4,4.7,1,6.8c1.4,4,3.4,7.6,5.4,11.2c2.1,3.5,4.3,6.9,6.7,10.3
			l2,2.8l2-2.8c2.6-3.5,4.8-7.1,7-10.8c2.1-3.8,4.1-7.6,5.4-11.9C373.1,229.5,373.8,227.2,373.1,224.4z"/>
		<g>
			<g>
				<path class="st0" d="M336.5,237.8c-3.5-2.6-7.3-4.7-11.2-6.4c-3.9-1.7-8-3-12.2-3.8c-4.2-0.9-8.4-1.3-12.6-1.3
					c-4.2-0.1-8.4,0.5-12.8,1c-4.3,0.5-8.7,1-13,1.5c-4.3,0.5-8.7,1.1-13,1.7c-8.7,1.3-17.3,2.9-25.9,4.5
					c-8.6,1.6-17.4,2.8-26.1,3.5c-8.8,0.7-17.6,1-26.5,0.4c-8.8-0.7-17.8-2.1-26.2-5.4c-4.2-1.5-8.2-3.7-11.9-6.3l-2.7-2.1
					c-0.9-0.7-1.6-1.6-2.4-2.3c-1.7-1.5-2.9-3.4-4.2-5.2l0.4-0.3c3,3.1,6.4,5.9,10.1,7.9c3.7,2.1,7.7,3.7,11.8,4.8
					c8.2,2.4,16.7,3.5,25.3,4c8.6,0.5,17.3,0.6,25.9,0.2c8.7-0.4,17.4-1,26.1-1.7c8.7-0.8,17.4-1.8,26-3.5
					c8.6-1.6,17.1-3.8,25.7-5.5c8.6-1.7,18.1-1.9,26.7,0.6c8.7,2.3,16.9,6.7,22.9,13.2L336.5,237.8z"/>
				<path class="st0" d="M140.2,208.5c0.5,0.9,0.7,1.6,0.3,2.5c-0.3,0.7-1.2,1.1-2,0.9c-1-0.2-1.4-0.9-1.8-1.8
					C136,208.2,139.2,206.6,140.2,208.5z"/>
				<path class="st0" d="M128.4,215.5c0.4,0.2,0.7,0.4,1,0.7c2.1,2.1-1.4,5-3,2.6c-0.1-0.2-0.3-0.4-0.4-0.6
					C125.2,216.5,126.6,214.8,128.4,215.5z"/>
				<path class="st0" d="M128.6,203.2c1.1,0.5,1.6,1.3,2.1,2.4c0.5,1.3-0.6,2.8-1.9,2.9c-1.5,0-2.5-0.4-3.4-1.7
					C123.9,204.8,126.4,202.2,128.6,203.2z"/>
			</g>
			<g>
				<path class="st0" d="M383.9,237.5c6.1-6.5,14.3-10.9,22.9-13.2c8.7-2.4,18.1-2.3,26.7-0.6c8.7,1.6,17.1,3.9,25.7,5.5
					c8.6,1.6,17.3,2.7,26,3.5c8.7,0.7,17.4,1.3,26.1,1.7c8.7,0.4,17.3,0.3,25.9-0.2c8.6-0.4,17.2-1.6,25.3-4
					c4.1-1.1,8.1-2.8,11.8-4.8c3.7-2.1,7.1-4.8,10.1-7.9l0.4,0.3c-1.3,1.7-2.5,3.7-4.2,5.2c-0.8,0.8-1.5,1.7-2.4,2.3l-2.7,2.1
					c-3.7,2.5-7.7,4.8-11.9,6.3c-8.4,3.2-17.3,4.7-26.2,5.4c-8.9,0.6-17.7,0.3-26.5-0.4c-8.8-0.7-17.5-1.9-26.1-3.5
					c-8.6-1.5-17.2-3.2-25.9-4.5c-4.3-0.7-8.7-1.2-13-1.7c-4.3-0.5-8.7-1-13-1.5c-4.3-0.5-8.6-1.1-12.8-1c-4.2,0-8.5,0.4-12.6,1.3
					c-4.2,0.9-8.2,2.1-12.2,3.8c-3.9,1.7-7.8,3.8-11.2,6.4L383.9,237.5z"/>
				<path class="st0" d="M580.5,208.5c-0.5,0.9-0.7,1.6-0.3,2.5c0.3,0.7,1.2,1.1,2,0.9c1-0.2,1.4-0.9,1.8-1.8
					C584.7,208.2,581.5,206.6,580.5,208.5z"/>
				<path class="st0" d="M592.3,215.5c-0.4,0.2-0.7,0.4-1,0.7c-2.1,2.1,1.4,5,3,2.6c0.1-0.2,0.3-0.4,0.4-0.6
					C595.6,216.5,594.1,214.8,592.3,215.5z"/>
				<path class="st0" d="M592.1,203.2c-1.1,0.5-1.6,1.3-2.1,2.4c-0.5,1.3,0.6,2.8,1.9,2.9c1.5,0,2.5-0.4,3.4-1.7
					C596.8,204.8,594.3,202.2,592.1,203.2z"/>
			</g>
		</g>
	</g>
</g>
<g>
	<path class="st0" d="M302.6,313.7c0-1.2-1-1.9-2.6-1.9c-1.5,0-3.2,0.8-4.6,2.1l-1.3-2.4c1.9-1.5,4.1-2.4,6.4-2.4
		c3.3,0,5.5,1.7,5.5,4.2c0,1.7-1.3,3.6-3.1,5.5l-4.3,4.2h8.1v2.8h-12.3v-2.3l6.2-6.4C301.8,315.8,302.6,314.6,302.6,313.7z"/>
	<path class="st0" d="M317.2,309.1l-5.3,9.9h4.6v-3.8h2.9l0,3.8h2.4v2.7h-2.4v3.9h-2.9v-3.9h-7.9v-2.3l5.6-10.3H317.2z"/>
	<path class="st0" d="M329.7,317.4v2.1h-5.9v-2.1H329.7z"/>
	<path class="st0" d="M344.8,317.4c0,5.4-2.2,8.4-6.3,8.4c-4.1,0-6.3-3-6.3-8.4c0-5.4,2.2-8.4,6.3-8.4
		C342.5,309,344.8,312,344.8,317.4z M335.3,317.4c0,4.1,1,6,3.2,6c2.1,0,3.2-1.9,3.2-6c0-4.1-1-5.9-3.2-5.9
		C336.3,311.5,335.3,313.3,335.3,317.4z"/>
	<path class="st0" d="M358.6,313.3c0,1.5-0.9,2.8-2.3,3.5c1.9,0.7,3.1,2.2,3.1,4.2c0,3-2.5,4.8-6.4,4.8c-3.9,0-6.4-1.8-6.4-4.8
		c0-2,1.3-3.5,3.3-4.3c-1.5-0.8-2.5-2.1-2.5-3.6c0-2.6,2.2-4.2,5.6-4.2C356.5,309,358.6,310.6,358.6,313.3z M349.6,320.7
		c0,1.7,1.3,2.6,3.4,2.6c2.2,0,3.4-0.9,3.4-2.6c0-1.6-1.3-2.6-3.5-2.6C350.9,318.2,349.6,319.1,349.6,320.7z M350.2,313.5
		c0,1.4,1.1,2.2,2.9,2.2c1.8,0,2.9-0.8,2.9-2.2c0-1.4-1-2.2-2.9-2.2C351.2,311.2,350.2,312.1,350.2,313.5z"/>
	<path class="st0" d="M367.7,317.4v2.1h-5.9v-2.1H367.7z"/>
	<path class="st0" d="M378.5,313.7c0-1.2-1-1.9-2.6-1.9c-1.5,0-3.2,0.8-4.6,2.1l-1.3-2.4c1.9-1.5,4.1-2.4,6.4-2.4
		c3.3,0,5.5,1.7,5.5,4.2c0,1.7-1.3,3.6-3.1,5.5l-4.3,4.2h8.1v2.8h-12.3v-2.3l6.2-6.4C377.7,315.8,378.5,314.6,378.5,313.7z"/>
	<path class="st0" d="M397.3,317.4c0,5.4-2.2,8.4-6.3,8.4c-4.1,0-6.3-3-6.3-8.4c0-5.4,2.2-8.4,6.3-8.4
		C395.1,309,397.3,312,397.3,317.4z M387.9,317.4c0,4.1,1,6,3.2,6c2.1,0,3.2-1.9,3.2-6c0-4.1-1-5.9-3.2-5.9
		C388.9,311.5,387.9,313.3,387.9,317.4z"/>
	<path class="st0" d="M407.4,309.1v16.6h-3.2v-13.8h-3.5v-2.8H407.4z"/>
	<path class="st0" d="M425.8,313.3c0,1.5-0.9,2.8-2.3,3.5c1.9,0.7,3.1,2.2,3.1,4.2c0,3-2.5,4.8-6.4,4.8c-3.9,0-6.4-1.8-6.4-4.8
		c0-2,1.3-3.5,3.3-4.3c-1.5-0.8-2.5-2.1-2.5-3.6c0-2.6,2.2-4.2,5.6-4.2C423.7,309,425.8,310.6,425.8,313.3z M416.8,320.7
		c0,1.7,1.3,2.6,3.4,2.6c2.2,0,3.4-0.9,3.4-2.6c0-1.6-1.3-2.6-3.5-2.6C418.1,318.2,416.8,319.1,416.8,320.7z M417.3,313.5
		c0,1.4,1.1,2.2,2.9,2.2c1.8,0,2.9-0.8,2.9-2.2c0-1.4-1-2.2-2.9-2.2C418.4,311.2,417.3,312.1,417.3,313.5z"/>
</g>
</svg>
